# xmcd CD database file
#
# Track frame offsets:
#	183
#	13403
#	25215
#	36780
#	50690
#	66750
#	81435
#	96710
#	108563
#	124565
#	137913
#	150138
#	163213
#	177328
#	191178
#	207745
#	224893
#	238053
#	256430
#	276000
#
# Disc length: 3864 seconds
#
# Revision: 3
# Processed by: cddbd v1.4PL0 Copyright (c) Steve Scherf et al.
# Submitted via: CDex 1.40PlusFr
#
DISCID=3d0f1614
DTITLE=Sacha Distel - Les plus grand succes de Sacha Distel
DYEAR=1980
DGENRE=Folk-Rock
TTITLE0=Scoubidou "pommes et poires"
TTITLE1=Oh quelle nuit "lonesome me"
TTITLE2=Oui, oui,oui,oui
TTITLE3=Ma premiere guitare
TTITLE4=Mon beau chapeau
TTITLE5=Chanson bleue "song sung blue"
TTITLE6=Scandale dans la famille
TTITLE7=Ces mots stupides
TTITLE8=Monsieur cannbale
TTITLE9=L'incendie a rio
TTITLE10=Accroche un ruban
TTITLE11=La belle vie
TTITLE12=Toute la pluie tombe sur moi
TTITLE13=Le soleil de ma vie
TTITLE14=Ma femme
TTITLE15=Vite, cherie, vite
TTITLE16=Toutes les meme
TTITLE17=Le pere de sylvia
TTITLE18=Je t'appelle pour te dire que je t'aime
TTITLE19=Le bateau blanc
EXTD=YEAR: 1980 ID3G: 81
EXTT0=
EXTT1=
EXTT2=
EXTT3=
EXTT4=
EXTT5=
EXTT6=
EXTT7=
EXTT8=
EXTT9=
EXTT10=
EXTT11=
EXTT12=
EXTT13=
EXTT14=
EXTT15=
EXTT16=
EXTT17=
EXTT18=
EXTT19=
PLAYORDER=
